<?xml version="1.0" encoding="utf-8"?>
<!-- Generator: Adobe Illustrator 19.0.0, SVG Export Plug-In . SVG Version: 6.00 Build 0)  -->
<svg version="1.1" id="Layer_1" xmlns="http://www.w3.org/2000/svg" xmlns:xlink="http://www.w3.org/1999/xlink" x="0px" y="0px"
	 width="18.1px" height="18.3px" viewBox="-296 387.7 18.1 18.3" style="enable-background:new -296 387.7 18.1 18.3;"
	 xml:space="preserve">
<path style="fill:#FFFFFF;" d="M-286.9,406c-5,0-9.1-4.1-9.1-9.1c0-5,4.1-9.1,9.1-9.1c5,0,9.1,4.1,9.1,9.1
	C-277.9,401.9-281.9,406-286.9,406z M-281.8,395.8v-2.1c0-1.1-0.9-2-2-2h-6.3c-1.1,0-2,0.9-2,2v6.4c0,1.1,0.9,2,2,2h6.3
	c1.1,0,2-0.9,2-2V395.8z M-283.8,401h-6.3c-0.5,0-1-0.4-1-1v-4.3h1.5c-0.1,0.3-0.2,0.7-0.2,1.1c0,1.6,1.3,2.8,2.8,2.8
	c1.6,0,2.8-1.3,2.8-2.8c0-0.4-0.1-0.7-0.2-1.1h1.5v4.3C-282.8,400.6-283.2,401-283.8,401z M-284.7,392.9l1.5,0h0.2v1.8l-1.7,0
	L-284.7,392.9z M-286.9,398.7c-1,0-1.8-0.8-1.8-1.8c0-0.4,0.1-0.8,0.3-1.1c0.3-0.5,0.9-0.8,1.5-0.8c0.6,0,1.1,0.3,1.5,0.8
	c0.2,0.3,0.3,0.7,0.3,1.1C-285.1,397.9-285.9,398.7-286.9,398.7z"/>
</svg>
