<?xml version="1.0" encoding="utf-8"?>
<!-- Generator: Adobe Illustrator 19.0.0, SVG Export Plug-In . SVG Version: 6.00 Build 0)  -->
<svg version="1.1" id="Layer_1" xmlns="http://www.w3.org/2000/svg" xmlns:xlink="http://www.w3.org/1999/xlink" x="0px" y="0px"
	 width="187px" height="41px" viewBox="-212 376 187 41" style="enable-background:new -212 376 187 41;" xml:space="preserve">
<rect id="XMLID_28_" x="-212" y="376" style="fill:#C3161C;" width="187" height="40.9"/>
<g id="XMLID_45_">
	<g id="XMLID_61_">
		<path id="XMLID_27_" style="fill:#FFFFFF;" d="M-112.1,397.4c0,1.4,1.1,1.6,2.3,1.6h2.4c1.3,0,2.5-0.1,2.5-1.7v-0.4
			c0-1.1-0.7-1.5-2.3-1.5h-2.5c-1.3,0-1.6-0.3-1.6-1c0-1,0.6-1.1,2.2-1.1h0.9c2.2,0,2.3,0.2,2.3,1.2h0.8v-0.2c0-1.1-0.5-1.7-2.6-1.7
			h-1.8c-1.7,0-2.6,0.3-2.6,1.7c0,1.7,0.8,1.8,3.4,1.8h1.6c1.1,0,1.4,0.2,1.4,1c0,0.9-0.4,1.2-1.6,1.2h-2.7c-1.1,0-1.4-0.3-1.4-0.9
			V397h-0.8v0.4H-112.1z"/>
		<polygon id="XMLID_26_" style="fill:#FFFFFF;" points="-93.2,398.9 -92.3,398.9 -92.3,393.3 -89.2,393.3 -89.2,392.6 -96.3,392.6 
			-96.3,393.3 -93.2,393.3 		"/>
		<path id="XMLID_66_" style="fill:#FFFFFF;" d="M-73.3,396.9c0,1.1-0.7,1.3-1.5,1.3h-3.4c-0.8,0-1.5-0.2-1.5-1.3v-2.4
			c0-1.1,0.7-1.3,1.5-1.3h3.4c0.8,0,1.5,0.2,1.5,1.3V396.9z M-80.6,396.6c0,1.6,0.5,2.3,2.2,2.3h3.6c1.7,0,2.2-0.8,2.2-2.3v-1.7
			c0-1.6-0.5-2.3-2.2-2.3h-3.6c-1.7,0-2.2,0.8-2.2,2.3V396.6z"/>
		<path id="XMLID_63_" style="fill:#FFFFFF;" d="M-63.2,398.9h0.8v-2.5h4.1c0.8,0,1.2,0.1,1.2,1.1v1.4h0.8v-1.6c0-0.6-0.2-1-1.1-1.2
			l0,0c0.6-0.1,1.2-0.3,1.2-1.2v-0.5c0-1.2-0.3-1.8-2.1-1.8h-5v6.3H-63.2z M-62.4,395.7v-2.4h3.9c1.2,0,1.5,0.2,1.5,0.9v0.6
			c0,0.7-0.4,0.9-1.3,0.9H-62.4z"/>
		<polygon id="XMLID_21_" style="fill:#FFFFFF;" points="-46.9,398.9 -40.7,398.9 -40.7,398.2 -46,398.2 -46,396 -40.9,396 
			-40.9,395.3 -46,395.3 -46,393.3 -40.7,393.3 -40.7,392.6 -46.9,392.6 		"/>
	</g>
	<g id="XMLID_58_">
		<path id="XMLID_20_" style="fill:#FFF100;" d="M-84.9,396.1L-84.9,396.1c0.1,0,0.3,0.1,0.3,0.3v9c0,0.1-0.1,0.3-0.3,0.3l0,0
			c-0.1,0-0.3-0.1-0.3-0.3v-9C-85.1,396.2-85,396.1-84.9,396.1L-84.9,396.1z"/>
		<path id="XMLID_19_" style="fill:#FFF100;" d="M-84.9,401.2"/>
	</g>
	<g id="XMLID_55_">
		<path id="XMLID_18_" style="fill:#FFF100;" d="M-51.5,396.1L-51.5,396.1c0.1,0,0.3,0.1,0.3,0.3v9.1c0,0.1-0.1,0.3-0.3,0.3l0,0
			c-0.1,0-0.3-0.1-0.3-0.3v-9.1C-51.8,396.2-51.7,396.1-51.5,396.1L-51.5,396.1z"/>
		<path id="XMLID_17_" style="fill:#FFF100;" d="M-51.5,401.2"/>
	</g>
	<g id="XMLID_52_">
		<path id="XMLID_16_" style="fill:#FFF100;" d="M-100.7,396.1L-100.7,396.1c0.1,0,0.3,0.1,0.3,0.3v9c0,0.1-0.1,0.3-0.3,0.3l0,0
			c-0.1,0-0.3-0.1-0.3-0.3v-9C-101,396.2-100.8,396.1-100.7,396.1L-100.7,396.1z"/>
		<path id="XMLID_15_" style="fill:#FFF100;" d="M-100.7,401.2"/>
	</g>
	<g id="XMLID_49_">
		<path id="XMLID_14_" style="fill:#FFF100;" d="M-36,395.8L-36,395.8c0.1,0,0.3,0.1,0.3,0.3v9.2c0,0.1-0.1,0.3-0.3,0.3l0,0
			c-0.1,0-0.3-0.1-0.3-0.3v-9.2C-36.3,396-36.2,395.8-36,395.8L-36,395.8z"/>
		<path id="XMLID_13_" style="fill:#FFF100;" d="M-36,401"/>
	</g>
	<g id="XMLID_46_">
		<path id="XMLID_12_" style="fill:#FFF100;" d="M-67.9,396.1L-67.9,396.1c0.2,0,0.3,0.1,0.3,0.3v9c0,0.1-0.1,0.3-0.2,0.3h-0.1
			c-0.1,0-0.2-0.1-0.2-0.3v-9C-68.1,396.2-68,396.1-67.9,396.1L-67.9,396.1z"/>
		<path id="XMLID_11_" style="fill:#FFF100;" d="M-67.9,401.2"/>
	</g>
</g>
<g id="XMLID_30_">
	<g id="XMLID_32_">
		<g id="XMLID_34_">
			<path id="XMLID_42_" style="fill:#FFF100;" d="M-147.4,396.3c-0.5,0-0.8,0.4-0.8,0.9v1.3c0,0.5,0.2,0.9,0.8,0.9h0.9
				c0.5,0,0.9-0.2,0.9-0.9v-1.1v-1.2h-0.9C-146.4,396.3-147.4,396.3-147.4,396.3z M-150.5,393.9V393c0-2,1-2.4,4-2.4l0,0
				c2.7,0,3.7,0.4,3.7,2.1v5.7v1h1v1.5h-6.7c-1.4,0-2.3-1-2.3-2.2v-1.4c0-1.2,0.6-2.2,2.7-2.2h1.1h1.5v-2c0-1.1-0.1-1.2-1.1-1.2l0,0
				c-1.3,0-1.4,0.2-1.4,1.2v0.8H-150.5z"/>
			<path id="XMLID_8_" style="fill:#FFF100;" d="M-159.3,393.1v-2.3h-3.7v1.4h1v7.2h-1v1.5h4.7v-1.5h-0.9v-3.9
				c0-0.4,2.2-3.1,2.2-2.8v3.8h2.6v-4.3c0-1-0.6-1.6-1.8-1.6C-157.7,390.6-158.7,392.3-159.3,393.1z"/>
			<polygon id="XMLID_7_" style="fill:#FFF100;" points="-122,399.4 -122,390.8 -125.8,390.8 -125.8,392.2 -124.8,392.2 
				-124.8,399.4 -125.8,399.4 -125.8,400.9 -121,400.9 -121,399.4 			"/>
			<path id="XMLID_6_" style="fill:#FFF100;" d="M-171.5,393.1v-2.3h-3.7v1.4h1v7.2h-1v1.5h4.7v-1.5h-0.9v-3.9
				c0-0.4,2.2-3.1,2.2-2.8v3.8h2.6v-4.3c0-1-0.6-1.6-1.8-1.6C-169.9,390.6-170.9,392.3-171.5,393.1z"/>
			<path id="XMLID_36_" style="fill:#FFF100;" d="M-184.6,392.8c0-0.5,0.2-0.8,0.8-0.8h1.1c0.5,0,0.7,0.2,0.7,0.6v2.9h-2.7
				L-184.6,392.8L-184.6,392.8z M-179.2,397.6h-2.6v0.8c0,1-0.2,1.1-1.4,1.1l0,0c-1.5,0-1.4-0.1-1.4-1.1v-1.8h5.4v-3.9
				c0-1.4-1.1-2-3.9-2h-0.1h-0.3c-3,0-3.9,0.7-3.9,2.5v5.7c0,1.9,1.1,2.2,3.9,2.3h0.3c3-0.1,3.9-0.3,3.9-2.1v-1.5H-179.2z"/>
			<rect id="XMLID_3_" x="-124.8" y="386.9" style="fill:#FFF100;" width="2.8" height="1.8"/>
		</g>
		<path id="XMLID_2_" style="fill:#FFF100;" d="M-134.4,393.1v-2.3h-3.7v1.4h1v7.2h-1v1.5h4.7v-1.5h-0.9v-3.9c0-0.4,2.2-3.1,2.2-2.8
			v3.8h2.6v-4.3c0-1-0.6-1.6-1.8-1.6C-132.9,390.6-133.8,392.3-134.4,393.1z"/>
	</g>
	<polygon id="XMLID_1_" style="fill:#FFF100;" points="-192.9,396 -192.9,394.6 -194.4,394.6 -194.4,399.4 -191.8,399.4 
		-191.8,400.9 -199.2,400.9 -199.2,399.4 -197.3,399.4 -197.3,388.7 -198.8,388.7 -198.8,386.8 -127,386.8 -127,388.7 -194.4,388.7 
		-194.4,393 -192.9,393 -192.9,391.7 -191.2,391.7 -191.2,396 	"/>
</g>
</svg>
