<?xml version="1.0" encoding="utf-8"?>
<!-- Generator: Adobe Illustrator 19.0.0, SVG Export Plug-In . SVG Version: 6.00 Build 0)  -->
<svg version="1.1" id="Layer_1" xmlns="http://www.w3.org/2000/svg" xmlns:xlink="http://www.w3.org/1999/xlink" x="0px" y="0px"
	 width="18.2px" height="18.3px" viewBox="-296 387.7 18.2 18.3" style="enable-background:new -296 387.7 18.2 18.3;"
	 xml:space="preserve">
<path style="fill:#F42E2E;" d="M-286.9,387.7c-5,0-9.1,4.1-9.1,9.1c0,5,4.1,9.1,9.1,9.1s9.1-4.1,9.1-9.1
	C-277.8,391.8-281.9,387.7-286.9,387.7L-286.9,387.7z M-282.3,397.8c0.4,0.4,0.9,0.8,1.3,1.3c0.2,0.2,0.3,0.4,0.4,0.6
	c0.2,0.3,0,0.7-0.3,0.7l-1.9,0c-0.5,0-0.9-0.2-1.2-0.5c-0.3-0.3-0.5-0.5-0.7-0.8c-0.1-0.1-0.2-0.2-0.3-0.3c-0.3-0.2-0.5-0.1-0.6,0.2
	c-0.1,0.3-0.2,0.6-0.2,0.9c0,0.4-0.2,0.6-0.6,0.6c-0.9,0-1.8-0.1-2.7-0.6c-0.7-0.4-1.3-1-1.8-1.7c-1-1.3-1.7-2.7-2.4-4.2
	c-0.1-0.3,0-0.5,0.3-0.5c0.6,0,1.2,0,1.8,0c0.2,0,0.4,0.1,0.5,0.4c0.3,0.8,0.7,1.6,1.2,2.3c0.1,0.2,0.3,0.4,0.5,0.5
	c0.2,0.1,0.4,0.1,0.5-0.1c0.1-0.2,0.1-0.3,0.1-0.5c0-0.6,0.1-1.1,0-1.7c-0.1-0.4-0.2-0.6-0.6-0.6c-0.2,0-0.2-0.1-0.1-0.2
	c0.1-0.2,0.3-0.3,0.6-0.3h2.1c0.3,0.1,0.4,0.2,0.5,0.6l0,2.4c0,0.1,0.1,0.5,0.3,0.6c0.2,0.1,0.3-0.1,0.4-0.2
	c0.5-0.5,0.9-1.2,1.2-1.8c0.1-0.3,0.3-0.6,0.4-0.9c0.1-0.2,0.2-0.3,0.5-0.3l2,0c0.1,0,0.1,0,0.2,0c0.3,0.1,0.4,0.2,0.3,0.5
	c-0.2,0.5-0.5,1-0.8,1.4c-0.3,0.5-0.7,0.9-1,1.4C-282.7,397.2-282.7,397.5-282.3,397.8L-282.3,397.8z"/>
</svg>
