<svg xmlns="http://www.w3.org/2000/svg" height="138" viewBox="0 0 187 138" width="187"><svg height="41" viewBox="-212 376 187 41" width="187"><path fill="#C3161C" d="M-212 376h187v40.9h-187z"/><g fill="#FFF"><path d="M-112.1 397.4c0 1.4 1.1 1.6 2.3 1.6h2.4c1.3 0 2.5-.1 2.5-1.7v-.4c0-1.1-.7-1.5-2.3-1.5h-2.5c-1.3 0-1.6-.3-1.6-1 0-1 .6-1.1 2.2-1.1h.9c2.2 0 2.3.2 2.3 1.2h.8v-.2c0-1.1-.5-1.7-2.6-1.7h-1.8c-1.7 0-2.6.3-2.6 1.7 0 1.7.8 1.8 3.4 1.8h1.6c1.1 0 1.4.2 1.4 1 0 .9-.4 1.2-1.6 1.2h-2.7c-1.1 0-1.4-.3-1.4-.9v-.4h-.8v.4h.1zM-93.2 398.9h.9v-5.6h3.1v-.7h-7.1v.7h3.1M-73.3 396.9c0 1.1-.7 1.3-1.5 1.3h-3.4c-.8 0-1.5-.2-1.5-1.3v-2.4c0-1.1.7-1.3 1.5-1.3h3.4c.8 0 1.5.2 1.5 1.3v2.4zm-7.3-.3c0 1.6.5 2.3 2.2 2.3h3.6c1.7 0 2.2-.8 2.2-2.3v-1.7c0-1.6-.5-2.3-2.2-2.3h-3.6c-1.7 0-2.2.8-2.2 2.3v1.7zM-63.2 398.9h.8v-2.5h4.1c.8 0 1.2.1 1.2 1.1v1.4h.8v-1.6c0-.6-.2-1-1.1-1.2.6-.1 1.2-.3 1.2-1.2v-.5c0-1.2-.3-1.8-2.1-1.8h-5v6.3h.1zm.8-3.2v-2.4h3.9c1.2 0 1.5.2 1.5.9v.6c0 .7-.4.9-1.3.9h-4.1zM-46.9 398.9h6.2v-.7H-46V396h5.1v-.7H-46v-2h5.3v-.7h-6.2"/></g><path d="M-84.9 396.1c.1 0 .3.1.3.3v9c0 .1-.1.3-.3.3-.1 0-.3-.1-.3-.3v-9c.1-.2.2-.3.3-.3zM-51.5 396.1c.1 0 .3.1.3.3v9.1c0 .1-.1.3-.3.3-.1 0-.3-.1-.3-.3v-9.1c0-.2.1-.3.3-.3zM-100.7 396.1c.1 0 .3.1.3.3v9c0 .1-.1.3-.3.3-.1 0-.3-.1-.3-.3v-9c0-.2.2-.3.3-.3zM-36 395.8c.1 0 .3.1.3.3v9.2c0 .1-.1.3-.3.3-.1 0-.3-.1-.3-.3v-9.2c0-.1.1-.3.3-.3zM-67.9 396.1c.2 0 .3.1.3.3v9c0 .1-.1.3-.2.3h-.1c-.1 0-.2-.1-.2-.3v-9c0-.2.1-.3.2-.3z" fill="#FFF100"/><g fill="#FFF100"><path d="M-147.4 396.3c-.5 0-.8.4-.8.9v1.3c0 .5.2.9.8.9h.9c.5 0 .9-.2.9-.9v-2.3h-.9c.1.1-.9.1-.9.1zm-3.1-2.4v-.9c0-2 1-2.4 4-2.4 2.7 0 3.7.4 3.7 2.1v6.7h1v1.5h-6.7c-1.4 0-2.3-1-2.3-2.2v-1.4c0-1.2.6-2.2 2.7-2.2h2.6v-2c0-1.1-.1-1.2-1.1-1.2-1.3 0-1.4.2-1.4 1.2v.8h-2.5zM-159.3 393.1v-2.3h-3.7v1.4h1v7.2h-1v1.5h4.7v-1.5h-.9v-3.9c0-.4 2.2-3.1 2.2-2.8v3.8h2.6v-4.3c0-1-.6-1.6-1.8-1.6-1.5 0-2.5 1.7-3.1 2.5zM-122 399.4v-8.6h-3.8v1.4h1v7.2h-1v1.5h4.8v-1.5M-171.5 393.1v-2.3h-3.7v1.4h1v7.2h-1v1.5h4.7v-1.5h-.9v-3.9c0-.4 2.2-3.1 2.2-2.8v3.8h2.6v-4.3c0-1-.6-1.6-1.8-1.6-1.5 0-2.5 1.7-3.1 2.5zM-184.6 392.8c0-.5.2-.8.8-.8h1.1c.5 0 .7.2.7.6v2.9h-2.7l.1-2.7zm5.4 4.8h-2.6v.8c0 1-.2 1.1-1.4 1.1-1.5 0-1.4-.1-1.4-1.1v-1.8h5.4v-3.9c0-1.4-1.1-2-3.9-2h-.4c-3 0-3.9.7-3.9 2.5v5.7c0 1.9 1.1 2.2 3.9 2.3h.3c3-.1 3.9-.3 3.9-2.1v-1.5h.1zM-124.8 386.9h2.8v1.8h-2.8zM-134.4 393.1v-2.3h-3.7v1.4h1v7.2h-1v1.5h4.7v-1.5h-.9v-3.9c0-.4 2.2-3.1 2.2-2.8v3.8h2.6v-4.3c0-1-.6-1.6-1.8-1.6-1.6 0-2.5 1.7-3.1 2.5z"/><path d="M-192.9 396v-1.4h-1.5v4.8h2.6v1.5h-7.4v-1.5h1.9v-10.7h-1.5v-1.9h71.8v1.9h-67.4v4.3h1.5v-1.3h1.7v4.3"/></g></svg><svg height="78" viewBox="-266 358 78 78" width="78" y="41"><circle cx="-227" cy="397" r="38" fill="none" stroke="#F42E2E" stroke-width="2"/><circle cx="-226.6" cy="397.4" r="25.1" opacity=".7" fill="#FFF"/><path fill="#F42E2E" d="M-236.8 396.6h20.3v1.6h-20.3z"/><path fill="#F42E2E" d="M-227.4 387.2h1.6v20.3h-1.6z"/></svg><svg height="43" viewBox="-284 375 43 43" width="43" x="78" y="41"><circle cx="-263" cy="394" r="13" fill="#F42E2E"/><path d="M-261 397.5c-1 0-2-.4-2.7-.9l-4.2 5.2-.8-.6 4.2-5.2c-.7-.8-1.1-1.8-1.1-2.9 0-2.5 2-4.5 4.5-4.5s4.5 2 4.5 4.5-1.9 4.4-4.4 4.4z" fill="none" stroke="#FAFBFE"/></svg><svg height="26" viewBox="-292 384 26 26" width="26" x="121" y="41"><circle cx="-279" cy="397" r="13" fill="#AFAFAF"/><path d="M-277 400.5c-1 0-2-.4-2.7-.9l-4.2 5.2-.8-.6 4.2-5.2c-.7-.8-1.1-1.8-1.1-2.9 0-2.5 2-4.5 4.5-4.5s4.5 2 4.5 4.5-1.9 4.4-4.4 4.4z" fill="none" stroke="#FAFBFE"/></svg><svg height="25" viewBox="-300 384 10 25" width="10" x="147" y="41"><path d="M-290 403.1l-5 5.9-5-5.9h4.1V384h1.7v19.1h4.2z" fill="#FFF"/></svg><svg height="25" viewBox="-300 384 10 25" width="10" x="157" y="41"><path d="M-290 403.1l-5 5.9-5-5.9h4.1V384h1.7v19.1h4.2z" fill="#F42E2E"/></svg><svg height="24" viewBox="-293 385 24 24" width="24" x="78" y="84"><circle cx="-281" cy="397" r="11" fill="none" stroke="#F42E2E" stroke-width="2"/></svg><svg height="24" viewBox="-293 385 24 24" width="24" x="102" y="84"><circle cx="-281" cy="397" r="11" fill="none" stroke="#F42E2E" stroke-width="2"/><circle cx="-281" cy="397" r="6" fill="#F42E2E"/></svg><svg height="18.3" viewBox="-296 388 19 19" width="18.2" x="167" y="41"><path d="M-286.9 387.7c-5 0-9.1 4.1-9.1 9.1s4.1 9.1 9.1 9.1 9.1-4.1 9.1-9.1-4.1-9.1-9.1-9.1zm4.6 10.1c.4.4.9.8 1.3 1.3.2.2.3.4.4.6.2.3 0 .7-.3.7h-1.9c-.5 0-.9-.2-1.2-.5-.3-.3-.5-.5-.7-.8l-.3-.3c-.3-.2-.5-.1-.6.2-.1.3-.2.6-.2.9 0 .4-.2.6-.6.6-.9 0-1.8-.1-2.7-.6-.7-.4-1.3-1-1.8-1.7-1-1.3-1.7-2.7-2.4-4.2-.1-.3 0-.5.3-.5h1.8c.2 0 .4.1.5.4.3.8.7 1.6 1.2 2.3.1.2.3.4.5.5.2.1.4.1.5-.1.1-.2.1-.3.1-.5 0-.6.1-1.1 0-1.7-.1-.4-.2-.6-.6-.6-.2 0-.2-.1-.1-.2.1-.2.3-.3.6-.3h2.1c.3.1.4.2.5.6v2.4c0 .1.1.5.3.6.2.1.3-.1.4-.2.5-.5.9-1.2 1.2-1.8.1-.3.3-.6.4-.9.1-.2.2-.3.5-.3h2.2c.3.1.4.2.3.5-.2.5-.5 1-.8 1.4-.3.5-.7.9-1 1.4-.3.2-.3.5.1.8z" fill="#FFF"/></svg><svg height="18.3" viewBox="-296 388 19 19" width="18.2" x="126" y="84"><path d="M-286.9 387.7c-5 0-9.1 4.1-9.1 9.1s4.1 9.1 9.1 9.1 9.1-4.1 9.1-9.1-4.1-9.1-9.1-9.1zm4.6 10.1c.4.4.9.8 1.3 1.3.2.2.3.4.4.6.2.3 0 .7-.3.7h-1.9c-.5 0-.9-.2-1.2-.5-.3-.3-.5-.5-.7-.8l-.3-.3c-.3-.2-.5-.1-.6.2-.1.3-.2.6-.2.9 0 .4-.2.6-.6.6-.9 0-1.8-.1-2.7-.6-.7-.4-1.3-1-1.8-1.7-1-1.3-1.7-2.7-2.4-4.2-.1-.3 0-.5.3-.5h1.8c.2 0 .4.1.5.4.3.8.7 1.6 1.2 2.3.1.2.3.4.5.5.2.1.4.1.5-.1.1-.2.1-.3.1-.5 0-.6.1-1.1 0-1.7-.1-.4-.2-.6-.6-.6-.2 0-.2-.1-.1-.2.1-.2.3-.3.6-.3h2.1c.3.1.4.2.5.6v2.4c0 .1.1.5.3.6.2.1.3-.1.4-.2.5-.5.9-1.2 1.2-1.8.1-.3.3-.6.4-.9.1-.2.2-.3.5-.3h2.2c.3.1.4.2.3.5-.2.5-.5 1-.8 1.4-.3.5-.7.9-1 1.4-.3.2-.3.5.1.8z" fill="#F42E2E"/></svg><svg height="18.3" viewBox="-296 388 19 19" width="18.1" x="145" y="84"><path d="M-286.9 406c-5 0-9.1-4.1-9.1-9.1s4.1-9.1 9.1-9.1 9.1 4.1 9.1 9.1c-.1 5-4.1 9.1-9.1 9.1zm5.1-10.2v-2.1c0-1.1-.9-2-2-2h-6.3c-1.1 0-2 .9-2 2v6.4c0 1.1.9 2 2 2h6.3c1.1 0 2-.9 2-2v-4.3zm-2 5.2h-6.3c-.5 0-1-.4-1-1v-4.3h1.5c-.1.3-.2.7-.2 1.1 0 1.6 1.3 2.8 2.8 2.8 1.6 0 2.8-1.3 2.8-2.8 0-.4-.1-.7-.2-1.1h1.5v4.3c.1.6-.3 1-.9 1zm-.9-8.1h1.7v1.8h-1.7v-1.8zm-2.2 5.8c-1 0-1.8-.8-1.8-1.8 0-.4.1-.8.3-1.1.3-.5.9-.8 1.5-.8s1.1.3 1.5.8c.2.3.3.7.3 1.1 0 1-.8 1.8-1.8 1.8z" fill="#F42E2E"/></svg><svg height="18.3" viewBox="-296 388 19 19" width="18.1" x="163" y="84"><path d="M-286.9 406c-5 0-9.1-4.1-9.1-9.1s4.1-9.1 9.1-9.1 9.1 4.1 9.1 9.1c-.1 5-4.1 9.1-9.1 9.1zm5.1-10.2v-2.1c0-1.1-.9-2-2-2h-6.3c-1.1 0-2 .9-2 2v6.4c0 1.1.9 2 2 2h6.3c1.1 0 2-.9 2-2v-4.3zm-2 5.2h-6.3c-.5 0-1-.4-1-1v-4.3h1.5c-.1.3-.2.7-.2 1.1 0 1.6 1.3 2.8 2.8 2.8 1.6 0 2.8-1.3 2.8-2.8 0-.4-.1-.7-.2-1.1h1.5v4.3c.1.6-.3 1-.9 1zm-.9-8.1h1.7v1.8h-1.7v-1.8zm-2.2 5.8c-1 0-1.8-.8-1.8-1.8 0-.4.1-.8.3-1.1.3-.5.9-.8 1.5-.8s1.1.3 1.5.8c.2.3.3.7.3 1.1 0 1-.8 1.8-1.8 1.8z" fill="#FFF"/></svg><svg height="18.2" viewBox="-296 388 19 19" width="18.2" y="119"><path d="M-286.9 387.8c-5 0-9.1 4.1-9.1 9.1s4.1 9.1 9.1 9.1 9.1-4.1 9.1-9.1-4.1-9.1-9.1-9.1zm2.2 9.4h-1.5v5.3h-2.2v-5.3h-1v-1.9h1v-1.2c0-.9.4-2.2 2.2-2.2h1.6v1.8h-1.2c-.2 0-.5.1-.5.5v1.1h1.7l-.1 1.9z" fill="#F42E2E"/></svg><svg height="18.2" viewBox="-296 388 19 19" width="18.2" x="19" y="119"><path d="M-286.9 387.8c-5 0-9.1 4.1-9.1 9.1s4.1 9.1 9.1 9.1 9.1-4.1 9.1-9.1-4.1-9.1-9.1-9.1zm2.2 9.4h-1.5v5.3h-2.2v-5.3h-1v-1.9h1v-1.2c0-.9.4-2.2 2.2-2.2h1.6v1.8h-1.2c-.2 0-.5.1-.5.5v1.1h1.7l-.1 1.9z" fill="#FFF"/></svg><svg height="16" viewBox="-297 389 16 16" width="16" x="121" y="67"><path d="M-281 403.8l-6.8-6.8 6.8-6.8-1.2-1.2-6.8 6.8-6.8-6.8-1.2 1.2 6.8 6.8-6.8 6.8 1.2 1.2 6.8-6.8 6.8 6.8 1.2-1.2z" fill="#232323"/></svg><svg height="12" viewBox="-297 391 16 12" width="16" x="137" y="67"><path d="M-281 393.7l-2.7-2.7-7 6.6-3.5-3.5-2.8 2.6 6.2 6.2 2.8-2.6 7-6.6z" fill="#AE0909"/></svg></svg>